name C:\Users\antoi\Documents\MyRepositories\upper-imu-dc\Results\main_tracking\Case_91\kinematics.mot
datacolumns 43
datarows 13
range 3.74000000 3.98000000
endheader 
time	clav_prot	clav_elev	scapula_abduction	scapula_elevation	scapula_upward_rot	scapula_winging	plane_elv	shoulder_elv	axial_rot	TrapeziusScapula_M/activation	TrapeziusScapula_S/activation	TrapeziusScapula_I/activation	TrapeziusClavicle_S/activation	SerratusAnterior_I/activation	SerratusAnterior_M/activation	SerratusAnterior_S/activation	Rhomboideus_S/activation	Rhomboideus_I/activation	LevatorScapulae/activation	Coracobrachialis/activation	DeltoideusClavicle_A/activation	DeltoideusScapula_P/activation	DeltoideusScapula_M/activation	LatissimusDorsi_S/activation	LatissimusDorsi_M/activation	LatissimusDorsi_I/activation	PectoralisMajorClavicle_S/activation	PectoralisMajorThorax_I/activation	PectoralisMajorThorax_M/activation	TeresMajor/activation	Infraspinatus_I/activation	Infraspinatus_S/activation	PectoralisMinor/activation	TeresMinor/activation	Subscapularis_S/activation	Subscapularis_M/activation	Subscapularis_I/activation	Supraspinatus_P/activation	Supraspinatus_A/activation	TRIlong/activation	BIC_long/activation	BIC_brevis/activation	
          3.74000000	        -29.58272012	         -2.70326499	        -21.90363728	         -4.51622554	         17.88631630	          3.14365640	         -5.73595234	         38.51391926	          9.22379249	          0.03105679	          0.06939920	          0.01247362	          0.01000004	          0.01000000	          0.01000000	          0.01000001	          0.01261190	          0.02668502	          0.01276185	          0.01000000	          0.01000000	          0.06222702	          0.08410215	          0.01000007	          0.01000004	          0.01000002	          0.01000000	          0.01000000	          0.01000000	          0.01402965	          0.02802482	          0.03479926	          0.01000000	          0.01047384	          0.01000001	          0.01000001	          0.01000002	          0.01000003	          0.01000001	          0.04095074	          0.01000001	          0.01000000	
          3.76000000	        -29.91029308	         -2.66073371	        -22.27413132	         -4.57955872	         18.18277753	          2.99438190	         -5.11120800	         39.20452595	          8.74973195	          0.03077476	          0.07229741	          0.01187996	          0.01000428	          0.01000000	          0.01000000	          0.01000001	          0.01212701	          0.02101972	          0.01213582	          0.01000000	          0.01000000	          0.06072048	          0.08604720	          0.01000005	          0.01000003	          0.01000002	          0.01000000	          0.01000000	          0.01000000	          0.01181748	          0.02872694	          0.03537928	          0.01000000	          0.01060040	          0.01000001	          0.01000001	          0.01000002	          0.01000003	          0.01000001	          0.03688588	          0.01000001	          0.01000000	
          3.78000000	        -30.22941687	         -2.62676431	        -22.62307241	         -4.64961770	         18.48399157	          2.84546340	         -4.51427728	         39.90674809	          8.27646984	          0.02972750	          0.07526506	          0.01129307	          0.01069499	          0.01000000	          0.01000000	          0.01000001	          0.01111694	          0.01576509	          0.01080422	          0.01000000	          0.01000001	          0.05905523	          0.08798203	          0.01000004	          0.01000002	          0.01000002	          0.01000000	          0.01000000	          0.01000000	          0.01015942	          0.02971778	          0.03598238	          0.01000000	          0.01067826	          0.01000001	          0.01000001	          0.01000001	          0.01000003	          0.01000001	          0.03276606	          0.01000002	          0.01000000	
          3.80000000	        -30.54064327	         -2.60073107	        -22.94606879	         -4.72800095	         18.79870383	          2.69474975	         -3.94975109	         40.61953934	          7.80054045	          0.02702450	          0.07792779	          0.01286571	          0.01356383	          0.01000696	          0.01000004	          0.01000001	          0.01000005	          0.01182383	          0.01000004	          0.01000000	          0.01000001	          0.05767357	          0.08982270	          0.01000002	          0.01000001	          0.01000001	          0.01000000	          0.01000000	          0.01000000	          0.01000451	          0.03094838	          0.03662570	          0.01000000	          0.01083626	          0.01000001	          0.01000001	          0.01000001	          0.01000003	          0.01000001	          0.02847860	          0.01000002	          0.01000000	
          3.82000000	        -30.84478523	         -2.58243224	        -23.23911845	         -4.81652690	         19.13538936	          2.54025654	         -3.42254491	         41.34060647	          7.32201885	          0.02755568	          0.07942011	          0.01395310	          0.01381694	          0.01294841	          0.01000003	          0.01000001	          0.01000012	          0.01000003	          0.01000005	          0.01000000	          0.01000001	          0.05560739	          0.09166903	          0.01000002	          0.01000001	          0.01000001	          0.01000000	          0.01000000	          0.01000000	          0.01000002	          0.03211601	          0.03774414	          0.01000000	          0.01103988	          0.01000001	          0.01000001	          0.01000001	          0.01000004	          0.01000001	          0.02447986	          0.01000002	          0.01000000	
          3.84000000	        -31.14074225	         -2.56955871	        -23.49625271	         -4.91498774	         19.50147607	          2.37994855	         -2.93766458	         42.06729427	          6.84041354	          0.02811325	          0.08052438	          0.01585070	          0.01393275	          0.01700669	          0.01000005	          0.01000001	          0.01000006	          0.01000004	          0.01000004	          0.01000000	          0.01000001	          0.05414686	          0.09324147	          0.01000002	          0.01000001	          0.01000001	          0.01000000	          0.01000000	          0.01000000	          0.01000003	          0.03342842	          0.03864082	          0.01000000	          0.01130176	          0.01000001	          0.01000001	          0.01000001	          0.01000004	          0.01000001	          0.02068816	          0.01000002	          0.01000000	
          3.86000000	        -31.42723703	         -2.55937008	        -23.71291328	         -5.02217976	         19.90181544	          2.21235233	         -2.49738095	         42.79717403	          6.35891111	          0.02865001	          0.08148480	          0.01770544	          0.01403653	          0.02109361	          0.01000001	          0.01000001	          0.01000006	          0.01000003	          0.01000003	          0.01000000	          0.01000001	          0.05279782	          0.09466919	          0.01000002	          0.01000000	          0.01000001	          0.01000000	          0.01000000	          0.01000000	          0.01000002	          0.03473453	          0.03951550	          0.01000000	          0.01156880	          0.01000000	          0.01000001	          0.01000001	          0.01000004	          0.01000001	          0.01737365	          0.01000003	          0.01000000	
          3.88000000	        -31.70242306	         -2.54886594	        -23.88589895	         -5.13580078	         20.33773017	          2.03692346	         -2.10156476	         43.52876181	          5.88466518	          0.02916042	          0.08226448	          0.01953484	          0.01411074	          0.02508743	          0.01021438	          0.01000001	          0.01000005	          0.01000002	          0.01000002	          0.01000000	          0.01000001	          0.05151645	          0.09595613	          0.01000002	          0.01000000	          0.01000001	          0.01000000	          0.01000000	          0.01000000	          0.01000002	          0.03595255	          0.04039729	          0.01000000	          0.01182326	          0.01000000	          0.01000001	          0.01000001	          0.01000004	          0.01000001	          0.01443687	          0.01000003	          0.01000000	
          3.90000000	        -31.96406638	         -2.53499169	        -24.01326227	         -5.25279199	         20.80762498	          1.85391430	         -1.74829538	         44.26127101	          5.42813371	          0.02977362	          0.08283447	          0.02146163	          0.01407797	          0.02866207	          0.01101542	          0.01000001	          0.01000004	          0.01000001	          0.01000002	          0.01000000	          0.01000001	          0.05028806	          0.09718469	          0.01000002	          0.01000000	          0.01000001	          0.01000000	          0.01000000	          0.01000000	          0.01000002	          0.03707914	          0.04119801	          0.01000000	          0.01208842	          0.01000000	          0.01000001	          0.01000001	          0.01000005	          0.01000001	          0.01192322	          0.01000003	          0.01000000	
          3.92000000	        -32.21014022	         -2.51498581	        -24.09463084	         -5.36988518	         21.30790807	          1.66411159	         -1.43434452	         44.99408112	          5.00144985	          0.03037613	          0.08326914	          0.02322779	          0.01402569	          0.03197898	          0.01206818	          0.01000001	          0.01000004	          0.01000001	          0.01000002	          0.01000000	          0.01000001	          0.04891724	          0.09855167	          0.01000002	          0.01000000	          0.01000001	          0.01000000	          0.01000000	          0.01000000	          0.01000001	          0.03814787	          0.04187787	          0.01000000	          0.01231068	          0.01000000	          0.01000000	          0.01000000	          0.01000005	          0.01000001	          0.01007814	          0.01000003	          0.01000000	
          3.94000000	        -32.43913407	         -2.48651320	        -24.13131903	         -5.48388667	         21.83358371	          1.46863833	         -1.15580394	         45.72642064	          4.61699738	          0.03090571	          0.08362900	          0.02477109	          0.01396822	          0.03493073	          0.01319251	          0.01000001	          0.01000004	          0.01000001	          0.01000001	          0.01000000	          0.01000002	          0.04623217	          0.10062938	          0.01000002	          0.01000000	          0.01000001	          0.01000000	          0.01000000	          0.01000000	          0.01000001	          0.03914495	          0.04260136	          0.01000000	          0.01236285	          0.01000000	          0.01000000	          0.01000000	          0.01000006	          0.01000002	          0.01000001	          0.01000005	          0.01000000	
          3.96000000	        -32.65012469	         -2.44809769	        -24.12674842	         -5.59189281	         22.37764374	          1.26921837	         -0.90792706	         46.45820155	          4.28632812	          0.03136036	          0.08391682	          0.02601192	          0.01394435	          0.03767645	          0.01440838	          0.01000001	          0.01000003	          0.01000001	          0.01000001	          0.01000000	          0.01000002	          0.04396947	          0.10260173	          0.01000001	          0.01000000	          0.01000001	          0.01000000	          0.01000000	          0.01000000	          0.01000001	          0.03995372	          0.04316089	          0.01000000	          0.01247370	          0.01000000	          0.01000000	          0.01000000	          0.01000006	          0.01000002	          0.01000001	          0.01000005	          0.01000000	
          3.98000000	        -32.84292302	         -2.39893023	        -24.08536233	         -5.69165390	         22.93320319	          1.06754115	         -0.68649665	         47.18862258	          4.01823917	          0.03173584	          0.08414880	          0.02693767	          0.01394326	          0.04018895	          0.01567592	          0.01000001	          0.01000003	          0.01000001	          0.01000001	          0.01000000	          0.01000003	          0.04224079	          0.10444812	          0.01000001	          0.01000000	          0.01000000	          0.01000000	          0.01000000	          0.01000000	          0.01000001	          0.04058465	          0.04354787	          0.01000000	          0.01252453	          0.01000000	          0.01000000	          0.01000000	          0.01000007	          0.01000002	          0.01000001	          0.01000007	          0.01000000	
